<svg width="4832" height="2667" viewBox="0 0 4832 2667" fill="none" xmlns="http://www.w3.org/2000/svg">
<g clip-path="url(#clip0_12_2)">
<path fill-rule="evenodd" clip-rule="evenodd" d="M-233 2666.67H5100.33V0.000240326H-233V2666.67Z" fill="white"/>
<path fill-rule="evenodd" clip-rule="evenodd" d="M891.091 2383.57H479.737V295.067H891.091V2383.57Z" fill="#F9F9F9"/>
<path fill-rule="evenodd" clip-rule="evenodd" d="M1553.83 2389.55H1142.48V301.04H1553.83V2389.55Z" fill="#F9F9F9"/>
<path fill-rule="evenodd" clip-rule="evenodd" d="M2978.33 2365.61H2566.97V277.107H2978.33V2365.61Z" fill="#F9F9F9"/>
<path fill-rule="evenodd" clip-rule="evenodd" d="M2330.83 2371.6H1919.48V283.093H2330.83V2371.6Z" fill="#F9F9F9"/>
<path fill-rule="evenodd" clip-rule="evenodd" d="M3641.07 2371.6H3229.71V283.093H3641.07V2371.6Z" fill="#F9F9F9"/>
<path fill-rule="evenodd" clip-rule="evenodd" d="M4387.6 2371.6H3976.24V283.093H4387.6V2371.6Z" fill="#F9F9F9"/>
<path fill-rule="evenodd" clip-rule="evenodd" d="M2086.89 1077.41H2061.45C2044.01 1077.41 2029.88 1091.56 2029.88 1108.99V1160.15C2029.88 1177.57 2015.75 1191.72 1998.31 1191.72H1843.33C1825.89 1191.72 1811.76 1177.57 1811.76 1160.15V1108.99C1811.76 1091.56 1797.63 1077.41 1780.19 1077.41H1497.57C1480.13 1077.41 1466 1063.28 1466 1045.85V944.387C1466 937.973 1467.96 931.72 1471.6 926.44L1739.48 538.6C1745.37 530.067 1755.09 524.973 1765.47 524.973H1920.49C1945.69 524.973 1960.73 553.04 1946.79 574.027L1760.56 854.053C1746.61 875.04 1761.65 903.107 1786.85 903.107C1804.29 903.107 1818.43 888.973 1818.43 871.533V832.76C1818.43 815.32 1832.56 801.187 1850 801.187H1998.31C2015.75 801.187 2029.88 815.32 2029.88 832.76V871.533C2029.88 888.973 2044.01 903.107 2061.45 903.107H2086.89C2104.33 903.107 2118.47 917.24 2118.47 934.68V1045.85C2118.47 1063.28 2104.33 1077.41 2086.89 1077.41Z" fill="#F0F0F0"/>
<path fill-rule="evenodd" clip-rule="evenodd" d="M2528.03 858.347C2528.03 745.947 2502.63 689.76 2451.84 689.76C2401.01 689.76 2375.63 745.947 2375.63 858.347C2375.63 970.733 2401.01 1026.93 2451.84 1026.93C2502.63 1026.93 2528.03 970.733 2528.03 858.347ZM2295.15 1165.52C2249.73 1137.89 2214.19 1097.89 2188.47 1045.51C2162.75 993.12 2149.89 930.733 2149.89 858.347C2149.89 785.947 2162.75 723.56 2188.47 671.173C2214.19 618.787 2249.73 578.787 2295.15 551.16C2340.53 523.533 2392.77 509.733 2451.84 509.733C2510.88 509.733 2563.11 523.533 2608.51 551.16C2653.91 578.787 2689.48 618.787 2715.2 671.173C2740.92 723.56 2753.77 785.947 2753.77 858.347C2753.77 930.733 2740.92 993.12 2715.2 1045.51C2689.48 1097.89 2653.91 1137.89 2608.51 1165.52C2563.11 1193.15 2510.88 1206.96 2451.84 1206.96C2392.77 1206.96 2340.53 1193.15 2295.15 1165.52Z" fill="#F0F0F0"/>
<path fill-rule="evenodd" clip-rule="evenodd" d="M3424.17 1077.41H3398.73C3381.31 1077.41 3367.16 1091.56 3367.16 1108.99V1160.15C3367.16 1177.57 3353.03 1191.72 3335.59 1191.72H3180.61C3163.17 1191.72 3149.04 1177.57 3149.04 1160.15V1108.99C3149.04 1091.56 3134.91 1077.41 3117.47 1077.41H2834.87C2817.43 1077.41 2803.29 1063.28 2803.29 1045.85V944.387C2803.29 937.973 2805.24 931.72 2808.88 926.44L3076.76 538.6C3082.67 530.067 3092.37 524.973 3102.75 524.973H3257.77C3282.97 524.973 3298.01 553.04 3284.07 574.027L3097.85 854.053C3083.89 875.04 3098.93 903.107 3124.13 903.107C3141.57 903.107 3155.71 888.973 3155.71 871.533V832.76C3155.71 815.32 3169.84 801.187 3187.28 801.187H3335.59C3353.03 801.187 3367.16 815.32 3367.16 832.76V871.533C3367.16 888.973 3381.31 903.107 3398.73 903.107H3424.17C3441.61 903.107 3455.75 917.24 3455.75 934.68V1045.85C3455.75 1063.28 3441.61 1077.41 3424.17 1077.41Z" fill="#F0F0F0"/>
<path fill-rule="evenodd" clip-rule="evenodd" d="M2032.48 1074.01H2007.04C1989.6 1074.01 1975.47 1088.15 1975.47 1105.59V1156.75C1975.47 1174.17 1961.33 1188.31 1943.89 1188.31H1788.91C1771.48 1188.31 1757.35 1174.17 1757.35 1156.75V1105.59C1757.35 1088.15 1743.2 1074.01 1725.77 1074.01H1443.16C1425.72 1074.01 1411.59 1059.88 1411.59 1042.44V940.987C1411.59 934.574 1413.53 928.32 1417.17 923.04L1685.07 535.2C1690.96 526.667 1700.67 521.573 1711.04 521.573H1866.08C1891.28 521.573 1906.32 549.64 1892.36 570.627L1706.15 850.654C1692.2 871.64 1707.24 899.707 1732.44 899.707C1749.88 899.707 1764.01 885.573 1764.01 868.133V829.36C1764.01 811.92 1778.15 797.787 1795.59 797.787H1943.89C1961.33 797.787 1975.47 811.92 1975.47 829.36V868.133C1975.47 885.573 1989.6 899.707 2007.04 899.707H2032.48C2049.91 899.707 2064.05 913.84 2064.05 931.28V1042.44C2064.05 1059.88 2049.91 1074.01 2032.48 1074.01Z" fill="#C2C2FA"/>
<path fill-rule="evenodd" clip-rule="evenodd" d="M2473.61 854.947C2473.61 742.547 2448.21 686.347 2397.41 686.347C2346.6 686.347 2321.21 742.547 2321.21 854.947C2321.21 967.333 2346.6 1023.53 2397.41 1023.53C2448.21 1023.53 2473.61 967.333 2473.61 854.947ZM2240.73 1162.12C2195.32 1134.49 2159.76 1094.49 2134.04 1042.11C2108.33 989.72 2095.47 927.333 2095.47 854.947C2095.47 782.547 2108.33 720.16 2134.04 667.773C2159.76 615.387 2195.32 575.387 2240.73 547.76C2286.12 520.134 2338.36 506.334 2397.41 506.334C2456.47 506.334 2508.68 520.134 2554.09 547.76C2599.49 575.387 2635.05 615.387 2660.77 667.773C2686.49 720.16 2699.36 782.547 2699.36 854.947C2699.36 927.333 2686.49 989.72 2660.77 1042.11C2635.05 1094.49 2599.49 1134.49 2554.09 1162.12C2508.68 1189.75 2456.47 1203.56 2397.41 1203.56C2338.36 1203.56 2286.12 1189.75 2240.73 1162.12Z" fill="#C2C2FA"/>
<path fill-rule="evenodd" clip-rule="evenodd" d="M3369.76 1074.01H3344.32C3326.88 1074.01 3312.75 1088.15 3312.75 1105.59V1156.75C3312.75 1174.17 3298.61 1188.31 3281.17 1188.31H3126.2C3108.76 1188.31 3094.63 1174.17 3094.63 1156.75V1105.59C3094.63 1088.15 3080.49 1074.01 3063.05 1074.01H2780.44C2763.01 1074.01 2748.88 1059.88 2748.88 1042.44V940.987C2748.88 934.574 2750.83 928.32 2754.47 923.04L3022.35 535.2C3028.24 526.667 3037.96 521.573 3048.33 521.573H3203.36C3228.56 521.573 3243.6 549.64 3229.64 570.627L3043.43 850.654C3029.48 871.64 3044.52 899.707 3069.72 899.707C3087.16 899.707 3101.29 885.573 3101.29 868.133V829.36C3101.29 811.92 3115.43 797.787 3132.87 797.787H3281.17C3298.61 797.787 3312.75 811.92 3312.75 829.36V868.133C3312.75 885.573 3326.88 899.707 3344.32 899.707H3369.76C3387.2 899.707 3401.33 913.84 3401.33 931.28V1042.44C3401.33 1059.88 3387.2 1074.01 3369.76 1074.01Z" fill="#C2C2FA"/>
<path fill-rule="evenodd" clip-rule="evenodd" d="M934.701 1598.33C1032.37 1598.33 1113.16 1567 1179.6 1503.79C1259.08 1428.16 1305.08 1320.67 1349.57 1216.71C1399.85 1099.2 1447.35 988.213 1534.08 960.453C1572.29 948.227 1607.07 952.333 1640.35 973.04C1786.71 1064.12 1842.17 1426.72 1842.72 1430.37L1892.17 1423.01C1889.81 1407.17 1832.55 1033.76 1666.76 930.6C1620.92 902.053 1571.15 896.08 1518.84 912.827C1410.35 947.56 1358.49 1068.75 1303.6 1197.04C1218.28 1396.4 1130.08 1602.56 823.053 1535.17L674.521 1487.12C661.388 1482.88 647.294 1490.08 643.048 1503.21C638.799 1516.35 646.008 1530.45 659.148 1534.69L811.101 1583.75C855.03 1593.47 896.181 1598.33 934.701 1598.33Z" fill="#442F86"/>
<path fill-rule="evenodd" clip-rule="evenodd" d="M1779.67 1845.28L1726.45 1587.29C1708.08 1498.2 1759.97 1409.63 1846.67 1382.08C1943.65 1351.27 2046.67 1408.07 2072.36 1506.55L2137.65 1756.77L1779.67 1845.28Z" fill="url(#paint0_linear_12_2)"/>
<path fill-rule="evenodd" clip-rule="evenodd" d="M1779.77 1852.11C1785.49 1875.85 1871.29 1875.55 1971.4 1851.43C2071.52 1827.32 2148.04 1788.52 2142.32 1764.79C2136.6 1741.04 2050.8 1741.35 1950.69 1765.47C1850.59 1789.57 1774.07 1828.37 1779.77 1852.11Z" fill="#9186DD"/>
<path fill-rule="evenodd" clip-rule="evenodd" d="M1995.95 1782.12C1994.51 1790.12 2008.83 1799.4 2027.93 1802.83C2047.04 1806.27 2063.69 1802.55 2065.12 1794.53C2066.56 1786.52 2052.24 1777.25 2033.13 1773.81C2014.04 1770.39 1997.39 1774.11 1995.95 1782.12Z" fill="#442F86"/>
<path fill-rule="evenodd" clip-rule="evenodd" d="M1869.79 1820.8C1868.35 1828.81 1882.67 1838.09 1901.77 1841.52C1920.88 1844.95 1937.53 1841.23 1938.97 1833.23C1940.4 1825.21 1926.08 1815.93 1906.97 1812.51C1887.88 1809.08 1871.23 1812.79 1869.79 1820.8Z" fill="#442F86"/>
<path fill-rule="evenodd" clip-rule="evenodd" d="M1939.99 1412.32C1939.99 1412.32 2017.19 1440.4 2041.75 1521.09C2066.31 1601.8 2087.36 1705.31 2087.36 1705.31L2017.19 1707.07L1939.99 1412.32Z" fill="#BBD1F5"/>
<path fill-rule="evenodd" clip-rule="evenodd" d="M1872.01 1320.88L1834.73 1386.01L1883.85 1374.6L1872.01 1320.88Z" fill="#442F86"/>
<path fill-rule="evenodd" clip-rule="evenodd" d="M2776.83 1814.07C2776.81 1814.07 2776.81 1814.07 2776.81 1814.07L2765.09 1835.28L2776.83 1814.07ZM4124.68 1252.75L4104.8 1296.95C4101.33 1295.39 4019.25 1257.31 3943.89 1123.17C3922.11 1084.4 3888.69 1039.04 3853.24 1043.23C3827.81 1046.23 3760.37 1082.35 3683.68 1352.25C3600.05 1646.6 3421.19 1838.93 3152.05 1923.88C2977.87 1978.87 2762.45 1861.51 2753.37 1856.48L2776.83 1814.07C2779.53 1815.56 2983.51 1926.27 3137.47 1877.67C3390.08 1797.92 3558.17 1616.69 3637.07 1339.01C3700.19 1116.85 3769.04 1004.36 3847.56 995.094C3897.31 989.214 3943.93 1024.33 3986.15 1099.43C4053.79 1219.81 4123.97 1252.43 4124.68 1252.75Z" fill="#442F86"/>
<path fill-rule="evenodd" clip-rule="evenodd" d="M2327.08 1637.72L2454.75 1730.24C2465.41 1737.96 2467.8 1752.88 2460.07 1763.55C2452.33 1774.21 2437.41 1776.6 2426.75 1768.87L2299.09 1676.36C2288.43 1668.63 2286.04 1653.72 2293.77 1643.05C2301.51 1632.37 2316.41 1630 2327.08 1637.72Z" fill="#442F86"/>
<path fill-rule="evenodd" clip-rule="evenodd" d="M2425.56 1496.01L2553.23 1588.52C2563.89 1596.25 2566.28 1611.17 2558.55 1621.84C2550.81 1632.51 2535.91 1634.89 2525.24 1627.16L2397.57 1534.65C2386.91 1526.92 2384.52 1512 2392.25 1501.33C2399.99 1490.67 2414.89 1488.28 2425.56 1496.01Z" fill="#442F86"/>
<path fill-rule="evenodd" clip-rule="evenodd" d="M2872.24 1864.15L2793 1875.96L2814.93 1831.79L2889.84 1861.29L2872.24 1864.15Z" fill="#442F86"/>
<path fill-rule="evenodd" clip-rule="evenodd" d="M2336.8 1770.09L2557.65 1913.67C2633.92 1963.25 2735.31 1947.21 2792.55 1876.52C2856.6 1797.43 2841.24 1680.8 2758.91 1620.99L2549.68 1468.99L2336.8 1770.09Z" fill="url(#paint1_linear_12_2)"/>
<path fill-rule="evenodd" clip-rule="evenodd" d="M2410.85 1780.61L2461.69 1711.81L2722.55 1899.71C2722.55 1899.71 2660.03 1930.85 2588.04 1895.87C2516.07 1860.88 2410.85 1780.61 2410.85 1780.61Z" fill="#BBD1F5"/>
<path fill-rule="evenodd" clip-rule="evenodd" d="M1634.57 2217.44C1663.37 2217.44 1677.33 2203.04 1677.33 2186.21C1677.33 2149.21 1618.72 2162.05 1618.72 2143.45C1618.72 2137.09 1624.05 2131.91 1637.88 2131.91C1646.81 2131.91 1656.45 2134.49 1665.81 2139.83L1673.01 2122.11C1663.65 2116.2 1650.69 2113.19 1638.03 2113.19C1609.36 2113.19 1595.55 2127.44 1595.55 2144.6C1595.55 2182.04 1654.15 2169.08 1654.15 2187.95C1654.15 2194.12 1648.53 2198.72 1634.71 2198.72C1622.61 2198.72 1609.95 2194.4 1601.44 2188.23L1593.52 2205.77C1602.45 2212.69 1618.59 2217.44 1634.57 2217.44Z" fill="#442F86"/>
<path fill-rule="evenodd" clip-rule="evenodd" d="M1728.6 2198.44C1717.37 2198.44 1708.73 2190.37 1708.73 2176.97C1708.73 2163.59 1717.37 2155.52 1728.6 2155.52C1739.84 2155.52 1748.33 2163.59 1748.33 2176.97C1748.33 2190.37 1739.84 2198.44 1728.6 2198.44ZM1728.6 2216.87C1753.23 2216.87 1771.09 2200.31 1771.09 2176.97C1771.09 2153.65 1753.23 2137.09 1728.6 2137.09C1703.97 2137.09 1685.97 2153.65 1685.97 2176.97C1685.97 2200.31 1703.97 2216.87 1728.6 2216.87Z" fill="#442F86"/>
<path fill-rule="evenodd" clip-rule="evenodd" d="M1807.52 2148.47V2138.24H1786.07V2215.72H1808.53V2179.13C1808.53 2164.31 1816.73 2157.53 1829.12 2157.53C1830.85 2157.53 1832.29 2157.68 1834.16 2157.83V2137.09C1822.21 2137.09 1812.99 2140.97 1807.52 2148.47Z" fill="#442F86"/>
<path fill-rule="evenodd" clip-rule="evenodd" d="M1869.01 2148.47V2138.24H1847.56V2215.72H1870.01V2179.13C1870.01 2164.31 1878.23 2157.53 1890.61 2157.53C1892.35 2157.53 1893.79 2157.68 1895.65 2157.83V2137.09C1883.71 2137.09 1874.48 2140.97 1869.01 2148.47Z" fill="#442F86"/>
<path fill-rule="evenodd" clip-rule="evenodd" d="M1967.08 2138.24L1945.19 2190.8L1923.44 2138.24H1900.27L1933.81 2216.29L1933.52 2217.01C1930.51 2223.92 1927.04 2226.67 1920.85 2226.67C1916.39 2226.67 1911.64 2224.79 1908.19 2221.76L1899.97 2237.75C1905.01 2242.21 1913.65 2244.8 1921.57 2244.8C1935.55 2244.8 1946.2 2239.19 1953.69 2220.47L1988.68 2138.24H1967.08Z" fill="#442F86"/>
<path fill-rule="evenodd" clip-rule="evenodd" d="M2001.93 2188.93C1994.01 2188.93 1987.96 2194.4 1987.96 2202.76C1987.96 2208.65 1990.99 2213.12 1995.73 2215L1989.4 2237.89H2003.65L2011.87 2217.16C2015.17 2209.24 2015.76 2206.49 2015.76 2202.76C2015.76 2194.55 2010 2188.93 2001.93 2188.93Z" fill="#442F86"/>
<path fill-rule="evenodd" clip-rule="evenodd" d="M2115.69 2168.91H2096.69V2133.92H2115.69C2129.96 2133.92 2137.16 2140.4 2137.16 2151.49C2137.16 2162.43 2129.96 2168.91 2115.69 2168.91ZM2117 2114.91H2073.36V2215.72H2096.69V2187.92H2117C2143.92 2187.92 2160.77 2173.95 2160.77 2151.49C2160.77 2128.88 2143.92 2114.91 2117 2114.91Z" fill="#442F86"/>
<path fill-rule="evenodd" clip-rule="evenodd" d="M2204.55 2201.75C2196.63 2201.75 2191.88 2198 2191.88 2192.39C2191.88 2187.2 2195.19 2183.32 2205.71 2183.32H2221.11V2191.23C2218.52 2198.29 2212.04 2201.75 2204.55 2201.75ZM2206.28 2137.09C2193.89 2137.09 2181.36 2140.4 2172.87 2146.45L2180.93 2162.15C2186.55 2157.68 2195.04 2154.95 2203.25 2154.95C2215.35 2154.95 2221.11 2160.56 2221.11 2170.21H2203.25C2179.64 2170.21 2169.99 2179.72 2169.99 2193.4C2169.99 2206.79 2180.79 2216.87 2198.93 2216.87C2210.31 2216.87 2218.37 2213.12 2222.55 2206.07V2215.72H2243.57V2171.51C2243.57 2148.03 2229.89 2137.09 2206.28 2137.09Z" fill="#442F86"/>
<path fill-rule="evenodd" clip-rule="evenodd" d="M2302.19 2193.53C2290.37 2193.53 2281.73 2185.91 2281.73 2174.53C2281.73 2163.15 2290.37 2155.52 2302.19 2155.52C2314 2155.52 2322.49 2163.15 2322.49 2174.53C2322.49 2185.91 2314 2193.53 2302.19 2193.53ZM2323.36 2138.24V2148.17C2317.45 2140.69 2308.52 2137.09 2297.72 2137.09C2276.27 2137.09 2258.99 2151.92 2258.99 2174.53C2258.99 2197.13 2276.27 2211.97 2297.72 2211.97C2307.8 2211.97 2316.29 2208.8 2322.2 2202.32V2205.64C2322.2 2219.6 2315.29 2226.8 2299.45 2226.8C2289.52 2226.8 2278.72 2223.35 2272.09 2218.01L2263.16 2234.15C2272.24 2241.2 2286.49 2244.8 2301.19 2244.8C2329.12 2244.8 2344.67 2231.56 2344.67 2202.76V2138.24H2323.36Z" fill="#442F86"/>
<path fill-rule="evenodd" clip-rule="evenodd" d="M2401.27 2154.08C2411.35 2154.08 2418.69 2160.41 2420.27 2170.21H2382.11C2383.69 2160.27 2391.04 2154.08 2401.27 2154.08ZM2441.44 2177.27C2441.44 2152.35 2423.87 2137.09 2401.12 2137.09C2377.51 2137.09 2359.79 2153.79 2359.79 2176.97C2359.79 2200.01 2377.21 2216.87 2404 2216.87C2417.97 2216.87 2428.77 2212.55 2435.97 2204.33L2424.01 2191.37C2418.69 2196.41 2412.79 2198.87 2404.57 2198.87C2392.77 2198.87 2384.56 2192.96 2382.4 2183.32H2441.01C2441.16 2181.44 2441.44 2179 2441.44 2177.27Z" fill="#442F86"/>
<path fill-rule="evenodd" clip-rule="evenodd" d="M2568.17 2114.91V2176.12L2518.05 2114.91H2498.76V2215.72H2521.8V2154.51L2572.05 2215.72H2591.21V2114.91H2568.17Z" fill="#442F86"/>
<path fill-rule="evenodd" clip-rule="evenodd" d="M2650.4 2198.44C2639.16 2198.44 2630.53 2190.37 2630.53 2176.97C2630.53 2163.59 2639.16 2155.52 2650.4 2155.52C2661.63 2155.52 2670.13 2163.59 2670.13 2176.97C2670.13 2190.37 2661.63 2198.44 2650.4 2198.44ZM2650.4 2216.87C2675.03 2216.87 2692.88 2200.31 2692.88 2176.97C2692.88 2153.65 2675.03 2137.09 2650.4 2137.09C2625.77 2137.09 2607.77 2153.65 2607.77 2176.97C2607.77 2200.31 2625.77 2216.87 2650.4 2216.87Z" fill="#442F86"/>
<path fill-rule="evenodd" clip-rule="evenodd" d="M2751.77 2196.13C2749.33 2198 2746.01 2199.01 2742.71 2199.01C2736.65 2199.01 2733.05 2195.41 2733.05 2188.79V2157.25H2752.36V2139.97H2733.05V2121.11H2710.59V2139.97H2698.64V2157.25H2710.59V2189.08C2710.59 2207.51 2721.25 2216.87 2739.53 2216.87C2746.45 2216.87 2753.21 2215.28 2757.83 2211.97L2751.77 2196.13Z" fill="#442F86"/>
<path fill-rule="evenodd" clip-rule="evenodd" d="M2889.01 2133.63V2114.91H2812.84V2215.72H2836.17V2179H2882.83V2160.27H2836.17V2133.63H2889.01Z" fill="#442F86"/>
<path fill-rule="evenodd" clip-rule="evenodd" d="M2938.12 2198.44C2926.89 2198.44 2918.25 2190.37 2918.25 2176.97C2918.25 2163.59 2926.89 2155.52 2938.12 2155.52C2949.36 2155.52 2957.85 2163.59 2957.85 2176.97C2957.85 2190.37 2949.36 2198.44 2938.12 2198.44ZM2938.12 2216.87C2962.75 2216.87 2980.61 2200.31 2980.61 2176.97C2980.61 2153.65 2962.75 2137.09 2938.12 2137.09C2913.51 2137.09 2895.51 2153.65 2895.51 2176.97C2895.51 2200.31 2913.51 2216.87 2938.12 2216.87Z" fill="#442F86"/>
<path fill-rule="evenodd" clip-rule="evenodd" d="M3051.17 2138.24V2176.55C3051.17 2190.8 3043.68 2197.43 3033.32 2197.43C3023.37 2197.43 3017.61 2191.67 3017.61 2178.71V2138.24H2995.15V2182.01C2995.15 2205.92 3008.84 2216.87 3028.28 2216.87C3037.77 2216.87 3046.41 2213.27 3052.32 2206.49V2215.72H3073.64V2138.24H3051.17Z" fill="#442F86"/>
<path fill-rule="evenodd" clip-rule="evenodd" d="M3141.61 2137.09C3131.09 2137.09 3122.03 2140.69 3115.97 2147.31V2138.24H3094.52V2215.72H3116.99V2177.41C3116.99 2163.15 3124.76 2156.53 3135.56 2156.53C3145.49 2156.53 3151.25 2162.29 3151.25 2174.81V2215.72H3173.72V2171.36C3173.72 2147.75 3159.89 2137.09 3141.61 2137.09Z" fill="#442F86"/>
<path fill-rule="evenodd" clip-rule="evenodd" d="M3232.04 2198.44C3220.81 2198.44 3212.17 2190.37 3212.17 2176.97C3212.17 2163.59 3220.81 2155.52 3232.04 2155.52C3243.13 2155.52 3251.77 2163.59 3251.77 2176.97C3251.77 2190.37 3243.13 2198.44 3232.04 2198.44ZM3251.35 2108.87V2146.45C3245.73 2140.11 3237.67 2137.09 3228.16 2137.09C3206.27 2137.09 3189.41 2152.64 3189.41 2176.97C3189.41 2201.32 3206.27 2216.87 3228.16 2216.87C3238.53 2216.87 3246.73 2213.56 3252.35 2206.79V2215.72H3273.81V2108.87H3251.35Z" fill="#442F86"/>
</g>
<defs>
<linearGradient id="paint0_linear_12_2" x1="2110.79" y1="1544.67" x2="1709.55" y2="1637.3" gradientUnits="userSpaceOnUse">
<stop stop-color="#60B0E2"/>
<stop offset="1" stop-color="#916EB0"/>
</linearGradient>
<linearGradient id="paint1_linear_12_2" x1="2529.43" y1="1927.33" x2="2710.12" y2="1456.61" gradientUnits="userSpaceOnUse">
<stop stop-color="#60B0E2"/>
<stop offset="1" stop-color="#916EB0"/>
</linearGradient>
<clipPath id="clip0_12_2">
<rect width="5333.33" height="2666.67" fill="white" transform="translate(-233)"/>
</clipPath>
</defs>
</svg>
